<svg width="23" height="23" viewBox="0 0 23 23" fill="none" xmlns="http://www.w3.org/2000/svg">
<path d="M11.1469 3.54492C6.8121 3.54492 3.29999 7.08867 3.29999 11.3918C3.29999 15.7266 6.8121 19.2387 11.1469 19.2387C15.45 19.2387 18.9937 15.7266 18.9937 11.3918C18.9937 7.08867 15.45 3.54492 11.1469 3.54492ZM16.3043 7.18359C17.2535 8.32266 17.823 9.77813 17.823 11.3602C17.6016 11.2969 15.3867 10.8539 13.1719 11.1387C12.982 10.6957 12.8238 10.316 12.5707 9.80977C15.0703 8.79727 16.1777 7.37344 16.3043 7.18359ZM15.5766 6.39258C15.45 6.58242 14.4375 7.94297 12.0644 8.82891C10.957 6.80391 9.75468 5.15859 9.56483 4.90547C11.6848 4.39922 13.9312 4.93711 15.5766 6.39258ZM8.26757 5.34844C8.45741 5.60156 9.65975 7.24688 10.7672 9.24023C7.63475 10.0629 4.88202 10.0629 4.56561 10.0313C5.00858 7.97461 6.40077 6.23438 8.26757 5.34844ZM4.43905 11.4234C4.43905 11.3602 4.43905 11.2969 4.43905 11.202C4.72382 11.2336 7.9828 11.2652 11.3051 10.2527C11.5266 10.6324 11.6848 11.0121 11.8746 11.3918C9.43827 12.0879 7.22343 14.0496 6.14764 15.8848C5.07186 14.7141 4.43905 13.132 4.43905 11.4234ZM7.00194 16.7074C7.72968 15.2836 9.62811 13.4168 12.3176 12.4992C13.2668 14.9355 13.6465 16.9922 13.7414 17.5934C11.5898 18.5109 8.9953 18.2578 7.00194 16.7074ZM14.8805 16.9605C14.8172 16.5809 14.4375 14.6191 13.5832 12.1828C15.6715 11.8664 17.5066 12.4043 17.7598 12.4676C17.4433 14.3344 16.3676 15.948 14.8805 16.9605Z" fill="#111928"/>
</svg>
