<svg width="60" height="23" viewBox="0 0 60 23" fill="none" xmlns="http://www.w3.org/2000/svg">
<path d="M57.4231 8.6042C58.0559 8.12959 58.6254 7.56006 59.0684 6.89561C58.4989 7.14873 57.8344 7.33857 57.1699 7.40186C57.866 6.99053 58.3723 6.35771 58.6254 5.5667C57.9926 5.94639 57.2649 6.23115 56.5371 6.38936C55.9043 5.7249 55.05 5.34521 54.1008 5.34521C52.2656 5.34521 50.7785 6.83232 50.7785 8.66748C50.7785 8.92061 50.8102 9.17373 50.8735 9.42686C48.1207 9.26865 45.6528 7.93975 44.0074 5.94639C43.7227 6.421 43.5645 6.99053 43.5645 7.62334C43.5645 8.7624 44.134 9.7749 45.0516 10.3761C44.5137 10.3444 43.9758 10.2179 43.5328 9.96475V9.99639C43.5328 11.6101 44.6719 12.939 46.1906 13.2554C45.9375 13.3187 45.6211 13.3819 45.3364 13.3819C45.1149 13.3819 44.925 13.3503 44.7035 13.3187C45.1149 14.6476 46.3489 15.5968 47.8043 15.6284C46.6653 16.5144 45.2414 17.0522 43.691 17.0522C43.4063 17.0522 43.1531 17.0206 42.9 16.989C44.3555 17.9382 46.0957 18.4761 47.9942 18.4761C54.1008 18.4761 57.4231 13.4452 57.4231 9.04717C57.4231 8.88896 57.4231 8.7624 57.4231 8.6042Z" fill="#111928"/>
</svg>
